<?xml version="1.0" standalone="no"?>
<!DOCTYPE svg PUBLIC "-//W3C//DTD SVG 1.1//EN" "http://www.w3.org/Graphics/SVG/1.1/DTD/svg11.dtd" >
<!--
2013-9-30: Created.
-->
<svg>
<metadata>
Created by iconfont
</metadata>
<defs>

<font id="iconfont" horiz-adv-x="1024" >
  <font-face
    font-family="iconfont"
    font-weight="500"
    font-stretch="normal"
    units-per-em="1024"
    ascent="896"
    descent="-128"
  />
    <missing-glyph />
    
    <glyph glyph-name="chenggong" unicode="&#58957;" d="M325.456896-50.27968M882.05824-50.27968M236.027904-65.161472M960.132096-65.161472M63.683584 23.262976M958.46912 23.262976M81.267712-66.01344M1023.476736-66.01344M34.863104-38.886656M265.832448 229.811968c-23.003136 22.624256-25.059328 60.493824 0 82.419712l11.175936 9.78944c23.391232 20.451328 58.463232 22.59968 81.494016 0l50.302976-49.366016 39.57248-39.58272c9.790464 9.7792 19.093504 18.161664 27.010048 27.010048l13.971456 12.572672 186.73664 184.403968c22.033408 21.746688 58.33728 21.05344 81.49504 0l10.23488-9.30816c25.127936-22.837248 24.35072-58.802176 0-82.891776l-278.46656-275.683328c-21.527552-21.30432-58.9568-21.245952-80.553984 0L265.832448 229.811968zM64.201728 300.5888c0-124.797952 41.445376-227.712 130.855936-317.12256 89.401344-89.41056 192.325632-130.39104 316.652544-130.39104 124.347392 0 227.252224 40.98048 316.66176 130.39104 89.41056 89.409536 130.84672 192.324608 130.84672 317.12256 0 124.341248-41.43616 227.252224-130.84672 316.663808C738.962432 706.663168 636.0576 747.642624 511.710208 747.642624c-124.326912 0-227.2512-40.979456-316.652544-130.388992C105.647104 527.842048 64.201728 424.931072 64.201728 300.5888zM988.567552-38.886656"  horiz-adv-x="1024" />

    
    <glyph glyph-name="chenggongbiaoqing" unicode="&#58929;" d="M289.461248 436.209664c37.608448 0 68.10624 30.49984 68.10624 68.114432 0 37.617664-30.498816 68.114432-68.10624 68.114432-37.615616 0-68.114432-30.496768-68.114432-68.114432C221.346816 466.709504 251.845632 436.209664 289.461248 436.209664zM800.269312 385.142784c0-159.909888-129.600512-289.488896-289.460224-289.488896S221.346816 225.232896 221.346816 385.142784l-51.07712 0c0-188.11392 152.467456-340.591616 340.539392-340.591616 188.070912 0 340.539392 152.477696 340.539392 340.591616L800.269312 385.142784zM510.809088 896c-282.112 0-510.809088-228.721664-510.809088-510.857216 0-282.171392 228.697088-510.876672 510.809088-510.876672 282.109952 0 510.808064 228.70528 510.808064 510.876672C1021.617152 667.278336 792.91904 896 510.809088 896zM510.809088-74.648576c-253.899776 0-459.723776 205.855744-459.723776 459.790336 0 253.899776 205.824 459.738112 459.723776 459.738112 253.897728 0 459.731968-205.83936 459.731968-459.738112C970.541056 131.208192 764.706816-74.648576 510.809088-74.648576zM732.15488 436.209664c37.61664 0 68.114432 30.49984 68.114432 68.114432 0 37.617664-30.496768 68.114432-68.114432 68.114432-37.607424 0-68.104192-30.496768-68.104192-68.114432C664.050688 466.709504 694.547456 436.209664 732.15488 436.209664z"  horiz-adv-x="1024" />

    
    <glyph glyph-name="xingneng" unicode="&#59032;" d="M465.82 10.862c-1.155 0-2.32 0.074-3.49 0.224-12.934 1.66-22.889 12.239-23.756 25.251l-36.933 554.004-97.562-325.205c-3.53-11.767-14.483-19.753-26.772-19.44-12.282 0.286-22.86 8.743-25.839 20.662l-35.276 141.103-59.851-59.851c-5.117-5.117-12.058-7.993-19.296-7.993h-46.965c-15.071 0-27.289 12.218-27.289 27.289s12.218 27.289 27.289 27.289h35.662l85.937 85.937c6.951 6.953 17.105 9.629 26.58 7.003 9.474-2.624 16.805-10.143 19.189-19.679l22.884-91.536 112.365 374.55c3.793 12.64 16.081 20.752 29.199 19.276 13.114-1.482 23.287-12.133 24.166-25.3l37.734-566.009 97.010 291.031c3.49 10.47 12.943 17.807 23.952 18.59 11.025 0.787 21.406-5.145 26.341-15.015l69.523-139.046 22.558 45.115c4.622 9.245 14.070 15.085 24.406 15.085h187.86c15.072 0 27.289-12.218 27.289-27.289s-12.217-27.289-27.289-27.289h-170.993l-39.423-78.846c-4.622-9.244-14.070-15.084-24.406-15.084s-19.785 5.84-24.406 15.084l-64.469 128.935-120.064-360.186c-3.75-11.252-14.267-18.66-25.87-18.661z"  horiz-adv-x="1024" />

    
    <glyph glyph-name="step" unicode="&#58892;" d="M532.387 896c-320.047 0-392.751-325.818-392.751-435.479 0-213.83 389.865-588.521 389.865-588.521s354.863 392.192 354.863 579.863c0 157.044-72.704 444.137-351.977 444.137zM519.727 294.726c-114.595 0-207.5 92.998-207.5 207.5 0 114.595 92.905 207.593 207.5 207.593s207.5-92.905 207.5-207.5c0-114.595-92.905-207.593-207.5-207.593z"  horiz-adv-x="1024" />

    
    <glyph glyph-name="ios" unicode="&#58998;" d="M821.235026 351.984884c-1.287001 129.729651 105.791442 191.891776 110.553344 194.980577-60.102924 88.030835-153.796561 100.12864-187.258574 101.54434-79.794032 7.979403-155.598362-46.975519-196.010178-46.975519-40.411816 0-102.831341 45.688518-168.983167 44.530218-86.872534-1.287001-167.052666-50.57912-211.840284-128.442651-90.347436-156.756662-23.166009-388.931554 64.864826-515.958505 42.985817-62.162125 94.337137-132.046252 161.647264-129.600951 64.864826 2.574001 89.317835 41.956217 167.696167 41.956217s100.38604-41.956217 169.111867-40.669216c69.755428 1.287001 114.028245 63.449125 156.756662 125.86865 49.42082 72.200729 69.755428 142.084856 70.913728 145.559758C957.14228 145.550002 822.522026 197.030023 821.235026 351.984884L821.235026 351.984884 821.235026 351.984884zM692.277575 732.550935c35.778614 43.371917 59.845524 103.474841 53.281821 163.449065-51.48002-2.059201-113.899545-34.234214-150.83646-77.477431C561.647023 780.041254 532.560811 718.78003 540.411514 660.092806 597.811737 655.588305 656.49896 689.307718 692.277575 732.550935L692.277575 732.550935 692.277575 732.550935z"  horiz-adv-x="1084" />

    
    <glyph glyph-name="anzhuo" unicode="&#58999;" d="M971.648885 170.218966l-8.999064 0c-36.496202 0-65.993132 28.497034-65.993132 63.61838L896.656689 491.435538c0 35.246332 29.49693 63.743367 65.993132 63.743367l8.999064 0c36.496202 0 65.993132-28.497034 65.993132-63.743367L1037.642018 233.837345C1037.642018 198.716 1008.0201 170.218966 971.648885 170.218966L971.648885 170.218966zM788.417953 74.603916l-71.992508 0 0-138.985536c0-35.121345-29.621917-63.61838-66.118119-63.61838l-8.999064 0c-36.496202 0-65.993132 28.497034-65.993132 63.61838L575.31513 74.603916l-111.113437 0 0-138.985536c0-35.121345-29.621917-63.61838-66.118119-63.61838l-8.999064 0c-36.496202 0-66.118119 28.497034-66.118119 63.61838L322.966391 74.603916 259.972946 74.603916c-36.496202 0-65.993132 28.497034-65.993132 63.61838L193.979814 529.056623c0 6.874285 0.249974 13.623582 0.749922 20.247893L853.661164 549.304516c0.499948-6.624311 0.749922-13.498595 0.749922-20.247893l0-390.709341C854.411086 103.10095 824.914155 74.603916 788.417953 74.603916L788.417953 74.603916zM361.087423 795.65388l-55.244251 92.365388c-1.24987 1.999792-0.499948 4.749506 1.624831 5.999376l2.624727 1.374857c2.124779 1.24987 4.874493 0.499948 6.124363-1.624831l55.619212-92.990323c40.74576 18.748049 86.241025 29.246956 134.361018 29.246956l35.996254 0c46.245187 0 90.115622-9.748985 129.486525-27.122178L726.174431 893.76867c1.24987 1.999792 3.999584 2.749714 6.124363 1.624831l2.624727-1.374857c2.124779-1.24987 2.874701-3.874597 1.624831-5.999376l-53.994381-90.115622c87.365908-42.495578 151.109275-123.362162 167.607558-219.602147L198.104384 578.301499C214.227706 672.791666 276.221255 752.533367 361.087423 795.65388L361.087423 795.65388zM672.804985 676.666262c19.12301 0 34.621397 11.62379 34.621397 25.997295 0 14.373504-15.498387 25.997295-34.621397 25.997295-18.998023 0-34.49641-11.62379-34.49641-25.997295C638.308574 688.290053 653.681975 676.666262 672.804985 676.666262L672.804985 676.666262zM366.586851 673.791562c18.998023 0 34.49641 11.748777 34.49641 26.122282 0 14.373504-15.498387 25.997295-34.49641 25.997295-19.12301 0-34.49641-11.62379-34.49641-25.997295C331.965454 685.415352 347.463841 673.791562 366.586851 673.791562L366.586851 673.791562zM88.740765 170.218966l-8.999064 0C43.370487 170.218966 13.748569 198.716 13.748569 233.837345L13.748569 491.435538c0 35.246332 29.621917 63.743367 65.993132 63.743367L88.740765 555.178905c36.496202 0 66.118119-28.497034 66.118119-63.743367L154.858885 233.837345C154.858885 198.716 125.361954 170.218966 88.740765 170.218966L88.740765 170.218966z"  horiz-adv-x="1053" />

    
    <glyph glyph-name="cpu" unicode="&#58945;" d="M906.26 498 906.26 558.8l-72.1-0.2 0 94.3c0 23.9-12.3 37.3-36.2 37.3l-86.9 0 0 73.8-61.5 0 0-73.8-92.4 0L557.16 764l-61.5 0-0.1-73.8L403.16 690.2l0.2 73.8-61.8 0 0.1-73.8-80.9 0c-29.7 0-41.9-13.4-41.7-44.4l-0.6-87.2-73.4 0L145.06 498l73.4 0 0-84.9-73.4 0.1 0-61.5 73.4-0.2 0-86.2-73.4 0 0-60.4 73.4 0 0-82.4c0-34 13.7-48.1 47.8-48.1l75.4 0-0.1-70.8 61.4 0 0.3 70.8 92.4 0 0-70.8 61.7 0-0.1 70.8 92.4 0-0.2-70.8 61.7 0 0.1 70.8 82.3 0c27.6 0 40.8 24.3 40.8 48.1l0 82.4 72.1 0 0 60.4L834.16 265.3l0 86.2 72.1 0 0 61.4-72.1 0.2L834.16 498 906.26 498zM772.56 136 280.06 136 280.06 628.6l492.6 0L772.66 136zM382.96 213.7l295.8 0c11.8 0 16.1 8.1 16.1 18.8L694.86 529c0 12.6-8.6 19.6-18.8 19.6L379.86 548.6c-15.4 0-19.9-5.7-19.9-21.2l0-290.6C359.96 221.4 367.56 213.7 382.96 213.7z"  horiz-adv-x="1099" />

    
    <glyph glyph-name="Average" unicode="&#58888;" d="M512-128c-282.77 0-512 229.266-512 512.037 0 282.77 229.23 512 512 512 282.77 0 512-229.23 512-512 0-282.77-229.23-512.037-512-512.037zM512 822.857c-242.359 0-438.857-196.498-438.857-438.857s196.498-438.857 438.857-438.857c242.359 0 438.857 196.498 438.857 438.857 0 242.359-196.498 438.857-438.857 438.857zM746.971 243.858c-8.192-50.944-19.31-79.031-36.315-92.489-12.873-10.533-32.768-14.629-67.877-14.629-12.873 0-25.783 0.585-62.062 2.926-2.341 24.576-6.437 40.375-16.384 66.121 31.598-4.681 60.306-7.607 79.616-7.607 21.065 0 26.917 4.096 33.353 21.065 13.458 39.826 20.48 142.263 21.065 307.346h-173.861c-18.725-33.975-39.205-59.721-76.069-94.245-11.154 14.629-18.176 22.821-26.953 31.598v-6.437c-12.873 1.17-22.235 1.755-40.96 1.755h-7.607v-151.040c32.768 14.080 34.523 14.665 60.27 28.123l1.17-62.647c-42.13-21.065-87.223-39.79-134.619-57.381-31.013-11.118-31.598-11.703-47.433-18.139l-14.629 66.158c15.214 1.755 36.315 7.607 72.594 19.895v175.031h-16.969c-23.406 0-35.145-0.585-50.359-2.926v64.402c14.043-2.341 28.123-3.511 50.359-3.511h16.969v83.127c0 28.672-0.585 42.715-3.511 62.025h69.669c-2.926-19.31-3.511-31.598-3.511-61.44v-83.712h9.947c21.065 0 29.257 0.585 38.619 2.341v-23.991c32.219 31.013 49.189 56.174 67.328 98.926 7.022 15.799 13.458 35.694 19.31 57.929 0.585 3.511 0.585 3.511 1.755 11.703 0.585 2.926 0.585 3.511 1.755 7.022l69.083-15.214c-2.926-5.851-3.511-7.607-7.607-18.725-4.681-14.629-14.629-40.96-18.139-49.152h155.099c21.102 0 42.752 1.17 53.87 2.341-1.755-14.080-2.341-22.857-2.341-51.529 0-136.997-4.681-231.826-14.629-295.022zM535.662 491.447c46.226-29.842 74.313-50.322 107.118-78.409l-37.486-45.678c-37.449 33.938-63.781 53.87-105.362 80.786l35.73 43.301zM645.12 369.701l12.288-58.551c-49.774-32.768-112.969-67.877-155.136-86.016-8.192-3.547-12.288-5.303-22.821-11.739l-20.48 63.817c10.533 2.341 18.725 4.681 31.013 8.777 43.922 15.799 103.607 48.018 155.136 83.712z"  horiz-adv-x="1024" />

    
    <glyph glyph-name="dianliang" unicode="&#58898;" d="M550.84368 306.311617c0-21.452591-17.391089-38.844703-38.844703-38.844703l-67.977207 0c-21.452591 0-38.844703 17.391089-38.844703 38.844703L405.177066 461.688383c0 21.452591 17.391089 38.844703 38.844703 38.844703l67.977207 0c21.452591 0 38.844703-17.391089 38.844703-38.844703L550.84368 306.311617zM647.967718 267.466913l67.977207 0c21.453614 0 38.8314 17.391089 38.8314 38.844703L754.776326 405.352307c0 9.53619-2.15099 18.135032-8.495488 25.25315l-51.0507 58.150398c-7.373944 8.260128-17.916045 11.778254-28.987195 11.778254l-18.520819 0c-21.451568 0-38.611389-14.97404-38.611389-36.426631l0-157.794839C609.110735 284.858002 626.515127 267.466913 647.967718 267.466913zM346.911034 461.688383c0 21.452591-17.391089 38.844703-38.844703 38.844703l-67.977207 0c-21.452591 0-38.844703-17.391089-38.844703-38.844703l0-155.376767c0-21.452591 17.391089-38.844703 38.844703-38.844703l67.977207 0c21.452591 0 38.844703 17.391089 38.844703 38.844703L346.911034 461.688383zM958.708971 455.780837l0-143.570883c0-21.451568-17.379832-35.031864-38.8314-35.031864l-29.145807 0 0-106.821911c0-21.451568-16.933671-38.844703-38.386262-38.844703L104.146988 131.511475c-21.450545 0-38.856983 17.392112-38.856983 38.844703L65.290005 597.643821c0 21.451568 17.406438 38.844703 38.856983 38.844703l748.198513 0c21.451568 0 38.386262-17.392112 38.386262-38.844703l0-106.821911 29.145807 0C941.329139 490.821911 958.708971 477.232404 958.708971 455.780837zM813.043381 558.799118 142.979412 558.799118l0-349.598236 670.063969 0L813.043381 312.209954 813.043381 455.780837 813.043381 558.799118z"  horiz-adv-x="1024" />

    
    <glyph glyph-name="anzhuo1" unicode="&#58901;" d="M213.696 547.968c-28.16 0-51.2-23.04-51.2-51.2V291.2c0-28.096 23.04-51.2 51.2-51.2s51.2 23.04 51.2 51.2V496.832c0 28.16-23.04 51.136-51.2 51.136zM213.696 262.4a28.8 28.8 0 0 0-28.8 28.8V496.832a28.8 28.8 0 0 0 57.6 0V291.2a28.8 28.8 0 0 0-28.8-28.8zM831.68 547.968c-28.16 0-51.2-23.04-51.2-51.2V291.2c0-28.096 22.976-51.2 51.2-51.2s51.2 23.04 51.2 51.2V496.832a51.2 51.2 0 0 1-51.2 51.136zM831.68 262.4a28.8 28.8 0 0 0-28.8 28.8V496.832a28.8 28.8 0 0 0 57.6 0V291.2a28.8 28.8 0 0 0-28.8-28.8zM294.656 186.816c0-24.64 20.16-44.8 44.8-44.8h43.008v-116.8c0-28.096 23.04-51.2 51.2-51.2s51.2 23.04 51.2 51.2v116.8h81.6v-116.8c0-28.096 22.976-51.2 51.2-51.2s51.2 23.04 51.2 51.2v116.8h38.976c24.64 0 44.8 20.16 44.8 44.8V547.968H294.656v-361.152zM617.664-3.648a28.8 28.8 0 0 0-28.8 28.8v139.2H462.464v-139.2a28.8 28.8 0 0 0-57.6 0v139.2H339.52a22.4 22.4 0 0 0-22.4 22.464V525.568h413.184v-338.752a22.4 22.4 0 0 0-22.4-22.464h-61.376v-139.2c0-15.808-12.992-28.8-28.864-28.8zM297.92 576h451.52a225.28 225.28 0 0 1-113.28 163.456l51.712 51.712a11.328 11.328 0 0 1 0 15.808h-0.064a11.2 11.2 0 0 1-15.808 0l-52.032-52.096c-1.728-1.664-2.24-3.968-2.624-6.144A219.456 219.456 0 0 1 528.704 768h-10.048c-27.52 0-53.824-5.184-78.208-14.4-0.256 0.384-0.128 0.96-0.448 1.28l-52.096 52.096a11.2 11.2 0 0 1-15.808-15.808l47.488-47.552A225.088 225.088 0 0 1 297.92 576z m325.376 120.768a25.984 25.984 0 1 0 0-51.904 25.984 25.984 0 0 0 0 51.904z m-197.952 0a25.984 25.984 0 1 0 0-51.904 25.984 25.984 0 0 0 0 51.904zM325.568 598.4a202.88 202.88 0 0 0 55.296 91.456 48.448 48.448 0 1 1 38.592 28.928 197.696 197.696 0 0 0 99.2 26.816h9.984c35.648 0 69.568-9.664 98.944-26.624a48.448 48.448 0 1 1 41.024-31.04c24.768-24.256 43.392-54.912 53.184-89.472H325.568z"  horiz-adv-x="1024" />

    
    <glyph glyph-name="xingnengtongji" unicode="&#59021;" d="M857.472 832H166.528C109.888 832 64 786.112 64 729.472v-691.008C64-18.112 109.888-64 166.528-64h691.008c56.576 0 102.464 45.888 102.464 102.528V729.472C960 786.112 914.112 832 857.472 832zM204.032 732.16h616c22.208 0 40.192-17.984 40.192-40.192v-269.888h-31.68l-83.2 54.08a44.8 44.8 0 0 1-65.92-20.672L607.68 278.528 474.88 627.904a44.8 44.8 0 0 1-41.856 28.864h-0.256a44.608 44.608 0 0 1-41.792-29.312L293.952 363.52l-51.584 46.976a44.8 44.8 0 0 1-30.144 11.584H163.84V691.968c0 22.208 17.984 40.192 40.192 40.192z m616-696.32H204.032a40.192 40.192 0 0 0-40.192 40.192V332.544h31.04l88-80.128a44.8 44.8 0 0 1 72.192 17.664l78.656 213.952 130.688-343.936a44.8 44.8 0 0 1 41.408-28.864h0.512a44.736 44.736 0 0 1 41.472 27.968l94.208 232.32 48.768-31.68a44.544 44.544 0 0 1 24.384-7.232h44.992v-256.512a40.192 40.192 0 0 0-40.128-40.256z"  horiz-adv-x="1024" />

    
    <glyph glyph-name="wenti" unicode="&#58985;" d="M512 896C229.2224 896 0 666.7776 0 384s229.2224-512 512-512 512 229.2224 512 512S794.7776 896 512 896z m35.242667-739.1744a34.133333 34.133333 0 0 0-68.266667 0v15.104a34.133333 34.133333 0 0 0 68.266667 0v-15.104z m-0.1536 153.856l0.136533-33.979733a34.133333 34.133333 0 0 0-68.266667 0v34.116266a68.334933 68.334933 0 0 0 54.5792 66.7648c55.842133 11.298133 90.9312 64.546133 79.9232 121.2416a101.376 101.376 0 0 1-79.496533 79.479467c-31.3344 6.0416-61.883733-1.467733-85.9648-21.2992a102.178133 102.178133 0 0 1-37.3248-79.069867 34.133333 34.133333 0 0 0-68.266667 0c0 51.1488 22.664533 99.1744 62.1568 131.7376s91.409067 45.550933 142.404267 35.6352c66.850133-12.987733 120.490667-66.628267 133.4784-133.461333 17.988267-92.433067-41.847467-182.664533-133.358933-201.1648z"  horiz-adv-x="1024" />

    
    <glyph glyph-name="riqi" unicode="&#58894;" d="M460.8 384h102.4v-307.2H460.8zM929.6 742.4H768V844.8C768 873 745 896 716.8 896h-51.2c-28.2 0-51.2-23-51.2-51.2v-102.4H409.6V844.8c0 28.2-23 51.2-51.2 51.2h-51.2C279 896 256 873 256 844.8v-102.4H94.4C42.5 742.4 0 699.9 0 648v-681.6c0-51.9 42.5-94.4 94.4-94.4h835.2c51.9 0 94.4 42.5 94.4 94.4V648c0 51.9-42.5 94.4-94.4 94.4z m-8-703.2c0-35.6-29.1-64.8-64.8-64.8H167.2c-35.6 0-64.8 29.1-64.8 64.8V421.6c0 35.6 29.1 64.8 64.8 64.8h689.7c35.6 0 64.8-29.1 64.8-64.8v-382.4z"  horiz-adv-x="1024" />

    
    <glyph glyph-name="iOS" unicode="&#59188;" d="M959.9 585.6c2 43-4 86.1-17.7 127-22 52.2-66.2 91.8-120.4 108C786.4 829.4 750 833.3 713.5 832H310.4c-36.4 1.3-72.9-2.6-108.3-11.4-54.2-16.2-98.4-55.8-120.4-108-13.6-40.9-19.7-83.9-17.7-127v-403.1c-1.9-43.1 4.1-86.1 17.7-127 22-52.2 66.2-91.8 120.4-108 35.4-8.8 71.8-12.7 108.3-11.4h403.1c36.4-1.3 72.9 2.6 108.3 11.4 54.2 16.2 98.4 55.8 120.4 108 13.6 40.9 19.7 83.9 17.7 127V585.6zM241.7 216h-33.3V415h33.3v-199zM225 448.6c-11.4 0.1-20.6 9.4-20.5 20.9 0.1 11.4 9.4 20.6 20.9 20.5 11.3-0.1 20.5-9.3 20.5-20.7-0.1-11.5-9.4-20.8-20.9-20.7zM425.1 211c-87.9 0-143.3 62.8-143.3 162.7s55.3 162.9 143.3 162.9 143.5-63 143.5-162.9S513.3 211 425.1 211z m290.2 0c-66 0-112.4 36.4-115.7 90.8h30c3.3-37.9 38.9-63.6 88.4-63.6 47.3 0 81.2 25.8 81.2 61.2 0 29.5-20.4 47-67.2 58.8l-39.2 10.1c-58.4 14.9-84.4 39.6-84.4 81.2 0 51 45.9 87.3 108 87.3 61.6 0 106.4-36.4 108.3-86.4h-30c-2.8 35.6-34.4 59.3-79.2 59.3-43.7 0-76.1-24.3-76.1-59 0-27.1 19.6-43.1 66-54.9l34.2-8.8c63.4-16 90.1-40.3 90.1-84.2 0.1-55.5-44.6-91.8-114.4-91.8zM425.1 508.9c-69.1 0-112.6-52.3-112.6-135.2S356 238.8 425.1 238.8 538 291.1 538 373.7s-43.7 135.2-112.9 135.2z"  horiz-adv-x="1024" />

    
    <glyph glyph-name="di" unicode="&#59118;" d="M512-76.79999999999995L102.4 332.79999999999995h256v512h307.2v-512h256z"  horiz-adv-x="1024" />

    
    <glyph glyph-name="gao" unicode="&#59119;" d="M512 844.8L102.4 435.2h256v-512h307.2v512h256z"  horiz-adv-x="1024" />

    
    <glyph glyph-name="jixing" unicode="&#58930;" d="M697.4 100.7c-0.4-9.6-2.1-16.3-5.1-19.4-2.5-2.7-7.4-4-14.6-4H347.4c-11.7 0-18.9 1.2-19.7 23.4-4.5 118.7-10.8 290.5-14.6 401H712c-3.6-106.6-9.9-275.1-14.6-401zM797 687.3c-1.6 5.4-3.5 11.4-5.3 17.8-11.2 37.2-33 62.3-64.9 74.5-26.5 10.2-55.5 10.2-81.1 10.2H378.5c-25.6 0-54.5 0-81-10.2-31.8-12.2-53.6-37.3-64.8-74.5-1.9-6.4-3.7-12.2-5.3-17.7-15.5-51.1-19.6-64.9-19.6-95 0-30.4 16.5-467.7 17.3-486.2 1.6-43.5 12.5-74.8 33.4-95.9 21.1-21.3 52-31.8 94.3-31.8h319c42.3 0 73.2 10.4 94.3 31.8 20.9 21.1 31.8 52.4 33.4 95.9 0.7 18.6 17.3 455.9 17.3 486.3-0.2 29.9-4.4 43.7-19.8 94.8z m-116.1 27.1c0 7.4 6 13.4 13.3 13.4 7.3 0 13.3-6 13.3-13.4v-15.9c0-7.4-6-13.4-13.3-13.4-7.3 0-13.3 6-13.3 13.4v15.9z m-43.4 0c0 7.4 6 13.4 13.3 13.4 7.3 0 13.3-6 13.3-13.4v-15.9c0-7.4-6-13.4-13.3-13.4-7.3 0-13.3 6-13.3 13.4v15.9z m-30.2 13.5c7.3 0 13.3-6 13.3-13.4v-15.9c0-7.4-6-13.4-13.3-13.4-7.3 0-13.3 6-13.3 13.4v15.9c0.1 7.3 6.1 13.4 13.3 13.4z m127-628.6c-0.7-19.3-5.6-33.6-15.1-43.7-9.8-10.4-23.6-15.6-41.5-15.6H347.4c-17.7 0-31.6 5.2-41.4 15.6-9.5 10.1-14.5 24.5-15.2 43.8-4.7 125.8-11.6 311.5-15.3 420.5-0.2 5.1 1.7 10 5.2 13.6 3.5 3.6 8.3 5.7 13.3 5.7h437.2c5 0 9.8-2 13.3-5.7 3.5-3.6 5.4-8.5 5.2-13.6-3.7-104.9-10.4-286.8-15.4-420.6z m-3.2 502.6H294c-10.2 0-18.4 8.3-18.4 18.7 0 10.3 8.3 18.6 18.4 18.6h437.2c10.2 0 18.4-8.3 18.4-18.6s-8.3-18.7-18.5-18.7z"  horiz-adv-x="1024" />

    
    <glyph glyph-name="shibai" unicode="&#58958;" d="M549.044706 384l166.189176 166.249412a26.383059 26.383059 0 0 1 0 36.98447 26.383059 26.383059 0 0 1-37.044706 0L512 420.984471l-166.249412 166.249411a26.383059 26.383059 0 0 1-36.98447 0 26.383059 26.383059 0 0 1 0-37.044706L475.015529 384l-166.249411-166.249412a26.383059 26.383059 0 0 1 0-36.98447 26.383059 26.383059 0 0 1 37.044706 0L512 347.015529l166.249412-166.249411a26.383059 26.383059 0 0 1 36.98447 0 26.383059 26.383059 0 0 1 0 37.044706L548.984471 384zM512-128a512 512 0 1 0 0 1024 512 512 0 0 0 0-1024z"  horiz-adv-x="1024" />

    
    <glyph glyph-name="lishi" unicode="&#58969;" d="M640.37558 464.736533a40.117532 40.117532 0 0 0-27.079334 10.029383L413.711525 654.291871a40.117532 40.117532 0 0 0 1.002939 60.176297L614.299185 885.970617a40.195761 40.195761 0 1 0 52.152791-61.179236L501.970096 683.377081l165.484818-148.434867a40.117532 40.117532 0 0 0-27.079334-70.205681zM542.087627-128h-26.076395A445.304603 445.304603 0 0 0 70.706628 317.304603a406.19001 406.19001 0 0 0 122.358472 290.852106l13.038198 13.038198a40.145614 40.145614 0 1 0 53.15573-60.176298l-11.032321-10.029383a324.952008 324.952008 0 0 1-98.287953-233.684623c0-201.590597 163.478942-365.06954 365.069539-365.069539h26.076396c182.53477 0 330.969638 148.434868 330.969638 330.969637 0 198.581783-161.473066 361.057786-361.057787 361.057787h-33.096964a40.117532 40.117532 0 0 0 0 80.235063h34.099902a440.289912 440.289912 0 0 0 441.292851-441.29285 411.204701 411.204701 0 0 0-411.204702-411.204701zM657.425531 211.996082H482.914268a40.117532 40.117532 0 0 0-40.117532 40.117532V492.818805a40.117532 40.117532 0 1 0 80.235064 0v-200.587659h134.393731a40.117532 40.117532 0 0 0 0-80.235064z"  horiz-adv-x="1024" />

    
    <glyph glyph-name="wenti1" unicode="&#58899;" d="M509.4 832.4c-246.9 0-447.1-200.2-447.1-447.1s200.2-447.1 447.1-447.1c246.9 0 447.1 200.2 447.1 447.1S756.3 832.4 509.4 832.4z m-0.1-717.5c-17.3 0-31.4 14-31.4 31.4s14 31.4 31.4 31.4c17.3 0 31.4-14 31.4-31.4s-14-31.4-31.4-31.4z m43.9 178.6c-7.8-1.9-13.5-8.6-13.5-16.6v-43.8c0-16.8-13.6-30.4-30.3-30.4-16.8 0-30.4 13.6-30.4 30.4v90.7c0 13.9 11.2 25.1 25.1 25.1 67.3 0 126.1 51.8 128.2 119 2.8 89.7-90.9 159-184.9 111.6-40.2-20.3-59.4-63.8-61.1-108.8-0.7-19.3-19.3-33.9-39.7-27.8-13 3.9-21 16.2-21 29.8 0.5 111.3 100.3 199.5 215.2 180.3 76.6-12.8 138-75 150-151.7 15.4-98.7-48.4-185.9-137.6-207.8z"  horiz-adv-x="1024" />

    
    <glyph glyph-name="banben" unicode="&#59167;" d="M877.35808 199.5008a23.04 23.04 0 0 0 22.38464 40.27904l29.44-16.36352c37.7856-20.992 50.0992-67.28704 26.49088-102.58432a76.42624 76.42624 0 0 0-26.48576-24.2176l-378.33728-210.23744c-24.7296-13.7472-55.5264-13.7472-80.256 0L92.25728 96.6144c-37.7856 20.992-50.09408 67.28704-26.48576 102.58432a76.42624 76.42624 0 0 0 26.48576 24.21248l29.83424 16.57856a23.04 23.04 0 0 0 22.37952-40.27904l-29.82912-16.57856a30.38208 30.38208 0 0 1-10.56768-9.55392c-8.35072-12.48768-4.08064-28.54912 10.56768-36.68992l378.33216-210.24256c10.81344-6.00576 24.6784-6.00576 35.49184 0l378.33728 210.24256a30.38208 30.38208 0 0 1 10.56768 9.55904c8.35072 12.48768 4.08064 28.54912-10.56768 36.6848l-29.44512 16.36352z m-2.432 219.21792a23.04 23.04 0 0 0 22.37952 40.27904l31.88224-17.7152c37.78048-20.992 50.09408-67.28704 26.48576-102.58432a76.42624 76.42624 0 0 0-26.48576-24.2176l-378.33728-210.23744c-24.7296-13.74208-55.5264-13.74208-80.256 0l-378.33728 210.24256c-37.7856 20.992-50.09408 67.28704-26.48576 102.58432a76.42624 76.42624 0 0 0 26.48576 24.2176l31.98976 17.77152a23.04 23.04 0 1 0 22.38464-40.27904l-31.98976-17.77664a30.38208 30.38208 0 0 1-10.56768-9.55392c-8.35072-12.48768-4.08064-28.54912 10.56768-36.6848l378.33216-210.24256c10.81344-6.01088 24.6784-6.01088 35.49184 0l378.33728 210.24256a30.38208 30.38208 0 0 1 10.56768 9.55392c8.35072 12.48768 4.08064 28.54912-10.56768 36.6848l-31.87712 17.7152z m-350.52544 415.18592a28.16 28.16 0 0 1-27.35616 0L117.32992 622.8992a28.16 28.16 0 0 1 0-49.2288l379.71456-211.01056a28.16 28.16 0 0 1 27.35616 0l379.71456 211.01056a28.16 28.16 0 0 1 0 49.2288l-379.71456 211.00544z m402.0992-170.7264c35.84-19.9168 48.7424-65.11616 28.83072-100.95616a74.24 74.24 0 0 0-28.83072-28.83072l-379.71456-211.01056a74.24 74.24 0 0 0-72.12544 0L94.94528 533.39136c-35.84 19.9168-48.74752 65.11616-28.83072 100.95104a74.24 74.24 0 0 0 28.8256 28.83584L474.66496 874.18368a74.24 74.24 0 0 0 72.12544 0l379.71456-211.00544z"  horiz-adv-x="1024" />

    
    <glyph glyph-name="chenggong1" unicode="&#58927;" d="M512 384m-512 0a512 512 0 1 1 1024 0 512 512 0 1 1-1024 0ZM178.614857 338.139429a42.496 42.496 0 0 0 60.123429 60.050285l85.942857-87.625143a42.496 42.496 0 0 0-60.050286-60.123428L178.614857 338.139429z m561.005714 250.148571a42.496 42.496 0 1 0 65.097143-54.637714L394.459429 170.422857a42.496 42.496 0 0 0-65.097143 54.637714l410.112 363.373715z"  horiz-adv-x="1024" />

    
    <glyph glyph-name="shuliangtongji" unicode="&#58983;" d="M959.52024 352.015992c0-264.571714-215.444278-480.015992-480.015992-480.015992S0 87.956022 0 352.015992s215.444278 480.015992 480.015992 480.015992v-480.015992h479.504248zM1023.488256 415.984008h-480.015992V896C808.043978 896 1023.488256 680.555722 1023.488256 415.984008z"  horiz-adv-x="1024" />

    
    <glyph glyph-name="keliuqushi" unicode="&#58893;" d="M51.882667 113.493333h188.842666V-128H51.882667V113.493333z m287.914666 247.552H533.333333v-488.96H339.797333v488.96z m288-94.208h191.914667v-394.752H627.797333V266.837333z m287.914667 239.616H1109.333333v-634.368h-193.621333V506.453333zM-0.085333 353.109333l448.512 418.474667 257.365333-256.682667 242.944 287.061334L860.672 896H1109.333333v-244.224l-86.954666 90.965333-316.586667-389.034666-260.096 271.445333L62.378667 262.912l-62.464 90.197333z"  horiz-adv-x="1109" />

    
    <glyph glyph-name="RectangleCopy" unicode="&#59053;" d="M832 492.501333a21.333333 21.333333 0 0 1 21.333333 21.333334V619.264A106.24 106.24 0 0 1 747.136 725.333333H276.864A106.24 106.24 0 0 1 170.666667 619.264v-342.528A106.24 106.24 0 0 1 276.864 170.666667h470.272A106.24 106.24 0 0 1 853.333333 276.736V384a21.333333 21.333333 0 0 1-42.666666 0v-107.264A63.573333 63.573333 0 0 0 747.136 213.333333H276.864A63.573333 63.573333 0 0 0 213.333333 276.736V619.264A63.573333 63.573333 0 0 0 276.864 682.666667h470.272A63.573333 63.573333 0 0 0 810.666667 619.264v-105.429333a21.333333 21.333333 0 0 1 21.333333-21.333334M792.874667 85.333333H232.874667a21.333333 21.333333 0 0 1 0-42.666666h560a21.333333 21.333333 0 0 1 0 42.666666"  horiz-adv-x="1024" />

    
    <glyph glyph-name="dbfx" unicode="&#59230;" d="M512 182.39999999999998l179.2-179.2H332.8zM64 764.8h896v-582.4H64zM64 227.20000000000005l896 537.6H64zM198.4 518.4H288V272h-89.6zM377.6 675.2h89.6V272h-89.6zM556.8 406.4h89.6V272h-89.6zM736 563.2h89.6V272H736z"  horiz-adv-x="1024" />

    
    <glyph glyph-name="shibai1" unicode="&#58931;" d="M542.72 764.928c219.136 0 396.288-177.664 396.288-396.288s-177.664-396.288-396.288-396.288-396.288 177.152-396.288 396.288S323.584 764.928 542.72 764.928zM286.72 525.824c0 12.8-10.24 23.04-23.04 23.04s-23.04-10.24-23.04-23.04c0-23.04 9.216-44.032 24.576-58.88 14.848-14.848 35.84-24.064 58.88-24.064s44.032 9.216 58.88 24.064c14.848 14.848 24.576 35.84 24.576 58.88 0 12.8-10.24 23.04-23.04 23.04s-23.04-10.24-23.04-23.04c0-10.24-4.096-19.456-10.752-26.112-6.656-6.656-15.872-10.752-26.112-10.752-10.24 0-19.456 4.096-26.112 10.752-7.68 6.656-11.776 15.872-11.776 26.112z m373.76 0c0 12.8-10.24 23.04-23.04 23.04s-23.04-10.24-23.04-23.04c0-23.04 9.216-44.032 24.576-58.88 14.848-14.848 35.84-24.064 58.88-24.064s44.032 9.216 58.88 24.064 24.576 35.84 24.576 58.88c0 12.8-10.24 23.04-23.04 23.04s-23.04-10.24-23.04-23.04c0-10.24-4.096-19.456-10.752-26.112s-15.872-10.752-26.112-10.752-19.456 4.096-26.112 10.752c-7.68 6.656-11.776 15.872-11.776 26.112z m-352.768-344.064c0-12.8 10.24-23.04 23.04-23.04s23.04 10.24 23.04 23.04c0 43.008 17.408 82.432 45.568 110.592s67.584 45.568 110.592 45.568c43.008 0 82.432-17.408 110.592-45.568l1.024-1.024c27.648-28.16 44.544-66.56 44.544-109.568 0-12.8 10.24-23.04 23.04-23.04s23.04 10.24 23.04 23.04c0 55.296-22.016 105.472-57.856 141.824l-1.536 1.536c-36.864 36.352-87.552 59.392-143.36 59.392-55.808 0-107.008-22.528-143.36-59.392-35.84-36.864-58.368-87.552-58.368-143.36zM243.712 71.68c11.264 5.632 25.088 1.024 31.232-10.752 5.632-11.264 1.024-25.088-10.752-30.72L143.36-29.184l-1.024-0.512c-5.632-2.56-12.8-5.12-19.968-5.12h-0.512c-6.656 0-13.312 1.536-18.944 5.632-6.656 4.608-11.776 11.776-13.312 21.504-1.024 6.656 0 14.848 3.072 24.576l43.008 128c-22.016 33.792-39.424 71.168-51.712 110.592-12.8 41.984-19.968 86.016-19.968 132.096 0 123.392 50.176 235.008 131.072 315.392s192.512 130.56 316.416 130.56c123.392 0 235.008-50.176 315.904-130.56s131.072-192.512 131.072-315.904-50.176-235.008-131.072-315.392-192.512-130.56-315.904-130.56c-27.136 0-53.76 2.56-79.872 7.168-26.624 4.608-52.736 11.776-77.312 21.504-11.776 4.608-17.92 17.92-13.312 29.696 4.608 11.776 17.92 17.92 29.696 13.312 22.528-8.192 45.568-14.848 69.12-18.944 23.04-4.096 47.104-6.144 71.68-6.144 110.592 0 210.944 45.056 283.136 117.248S911.36 277.504 911.36 387.584s-45.056 210.432-117.248 283.136c-72.704 72.192-172.544 117.248-283.136 117.248-110.592 0-210.944-45.056-283.648-117.248s-117.76-172.544-117.76-283.136c0-41.472 6.144-80.896 17.92-118.272 11.776-38.4 29.184-74.24 51.712-106.496 5.12-6.656 6.656-15.36 3.072-23.552l-39.424-117.248 100.864 49.664z"  horiz-adv-x="1024" />

    
    <glyph glyph-name="riqi1" unicode="&#59102;" d="M512-128A512 512 0 1 0 512 896a512 512 0 0 0 0-1024z m0 78.774857A433.225143 433.225143 0 1 1 512 817.225143a433.225143 433.225143 0 0 1 0-866.450286z m0 393.874286h236.251429a39.424 39.424 0 0 0 0-78.774857H472.649143a39.350857 39.350857 0 0 0-39.350857 39.350857V659.748571A39.350857 39.350857 0 1 0 512 659.748571v-315.026285z"  horiz-adv-x="1024" />

    
    <glyph glyph-name="yichang" unicode="&#58900;" d="M512 895.99383a376.829937 376.829937 0 0 1-265.214956-107.007982 365.565939 365.565939 0 0 1-108.542982-259.069957v-499.708917h743.419877v499.709917a363.00594 363.00594 0 0 1-109.055982 259.069957A375.293938 375.293938 0 0 1 511.999 895.99283z m-30.719995-745.979876L470.528007 392.189914H287.233037L527.869997 695.802863l20.479997-195.582967 174.079971-6.143999-243.19996-344.061943zM0.003085-72.192009a55.807991 55.807991 0 0 0 55.806991 56.31999H968.189924a57.34399 57.34399 0 0 0 39.423994-16.384997 58.36799 58.36799 0 0 0 16.382997-39.934993A55.807991 55.807991 0 0 0 968.189924-128H55.810076A55.807991 55.807991 0 0 0 0.003085-72.192009z m0 0"  horiz-adv-x="1024" />

    
    <glyph glyph-name="jieguofabu" unicode="&#58916;" d="M244.224 525.21984h526.336c48.64 0 87.552-39.424 87.552-87.552v-292.352c0-48.64-39.424-87.552-87.552-87.552H244.224c-48.64 0-87.552 39.424-87.552 87.552v292.352c-0.512 48.128 38.912 87.552 87.552 87.552zM760.832-87.30624H245.76c-114.176 0-206.848 92.672-206.848 206.848v357.888c0 114.176 92.672 206.336 206.848 206.848h515.072c114.176 0 206.336-92.672 206.848-206.848v-357.888c0-114.176-92.672-206.848-206.848-206.848zM245.76 625.90976c-81.92 0-148.48-66.56-148.48-148.48v-357.888c0-81.92 66.56-148.48 148.48-148.48h515.072c81.92 0 148.48 66.56 148.48 148.48v357.888c0 81.92-66.56 148.48-148.48 148.48H245.76zM303.616 147.70176000000004c0.512-14.848-11.264-27.648-26.112-28.16-14.848-0.512-27.648 11.264-28.16 26.112v291.328c0.512 14.848 13.312 26.624 28.16 26.112 14.336-0.512 25.6-11.776 26.112-26.112v-289.28zM742.912 137.46176000000003c0-13.824-11.264-25.088-25.088-25.088H274.432c-13.824-0.512-25.6 9.728-26.112 23.552-0.512 13.824 9.728 25.6 23.552 26.112h446.464c13.312 0 24.576-11.264 24.576-24.576z m-261.12 224.768c-9.728 10.24-26.112 10.24-36.352 0.512l-78.848-79.36c-10.24-10.24-10.24-26.624 0-36.864 9.728-10.24 26.112-10.24 36.352-0.512l79.36 78.848c9.728 10.752 9.728 27.136-0.512 37.376zM564.736 247.02976c10.24 9.728 10.24 26.112 0 36.352l-79.36 78.848c-10.24 10.24-26.624 10.24-36.864 0-10.24-9.728-10.24-26.112 0-36.352l78.848-78.848c10.752-10.24 27.136-10.24 37.376 0zM649.216 362.22976000000006c-9.728 10.24-26.112 10.24-36.352 0.512l-79.36-78.848c-10.24-10.24-10.24-26.624 0-36.864 9.728-10.24 26.112-10.24 36.352-0.512l79.36 78.848c9.728 10.24 9.728 26.624 0 36.864zM714.24 427.25376c-9.728 10.24-26.112 10.24-36.352 0.512l-79.36-78.848c-10.24-10.24-10.24-26.624 0-36.864 9.728-10.24 26.112-10.24 36.352-0.512l79.36 78.848c10.24 10.24 10.24 27.136 0 36.864zM97.792 491.25376H39.936c0 51.2-0.512 120.832-0.512 120.832 0 112.128 91.136 203.264 203.264 203.264h136.704c123.392 0 194.56-66.56 194.56-182.784h-57.856c0 83.968-44.544 124.928-136.192 124.928H242.688c-80.384 0-145.408-65.024-145.408-145.408 0 0 0.512-69.632 0.512-120.832z"  horiz-adv-x="1024" />

    
    <glyph glyph-name="dianliang1" unicode="&#59151;" d="M177.313348 792.523172h682.222576c38.746005 0 70.357197-31.600181 70.357197-70.357197v-770.648029c0-38.746005-31.611191-70.357197-70.357197-70.357197H177.313348c-38.746005 0-70.357197 31.600181-70.357197 70.357197V722.165975c0 38.746005 31.611191 70.357197 70.357197 70.357197zM375.777897 895.977979h280.404809c5.163932 0 9.38096-4.217028 9.380959-9.38096v-64.532633c0-5.174942-4.217028-9.369949-9.380959-9.369949H375.777897a9.39197 9.39197 0 0 0-9.380959 9.369949V886.597019c0 5.163932 4.217028 9.38096 9.380959 9.38096zM230.373024 688.782091c-31.104707 0-28.142879 2.961829-28.142878-28.142879v-650.996753c0-31.115718-2.961829-28.142879 28.142878-28.142878H801.906884c31.104707 0 28.142879-2.972839 28.142878 28.142878V660.639212c0 31.104707 2.961829 28.142879-28.142878 28.142879H230.373024z m538.700501-56.296768c2.587471 0 4.69048-2.091998 4.69048-4.69048v-156.085073a4.69048 4.69048 0 0 0-4.69048-4.67947H263.206383a4.69048 4.69048 0 0 0-4.69048 4.67947V627.794843c0 2.587471 2.114019 4.69048 4.69048 4.69048h505.867142z m-510.557622-221.476527c0 2.587471 2.114019 4.69048 4.69048 4.70149h505.867142c2.587471 0 4.69048-2.114019 4.69048-4.70149v-161.138901a4.70149 4.70149 0 0 0-4.69048-4.69048H263.206383a4.70149 4.70149 0 0 0-4.69048 4.69048V411.008796z m0-221.850885c0 2.587471 2.114019 4.70149 4.69048 4.70149h505.867142c2.587471 0 4.69048-2.114019 4.69048-4.70149v-146.682093a4.69048 4.69048 0 0 0-4.69048-4.69048H263.206383a4.70149 4.70149 0 0 0-4.69048 4.69048V189.157911z"  horiz-adv-x="1024" />

    
    <glyph glyph-name="banbenxinxi" unicode="&#58963;" d="M481.834667 542.165333a42.624 42.624 0 1 0 60.330666-60.330666 42.624 42.624 0 1 0-60.330666 60.330666zM512 426.666667a42.666667 42.666667 0 0 0 42.666667-42.666667v-170.666667a42.666667 42.666667 0 0 0-85.333334 0v170.666667a42.666667 42.666667 0 0 0 42.666667 42.666667z m0 341.333333c-212.096 0-384-171.904-384-384s171.904-384 384-384 384 171.904 384 384-171.904 384-384 384z m0 85.333333c259.2 0 469.333333-210.133333 469.333333-469.333333s-210.133333-469.333333-469.333333-469.333333S42.666667 124.8 42.666667 384 252.8 853.333333 512 853.333333z"  horiz-adv-x="1024" />

    
    <glyph glyph-name="iOS1" unicode="&#58928;" d="M808.449745 346.251636c-1.349818 128.162909 112.174545 189.579636 117.224728 192.674909-63.813818 86.993455-163.188364 98.862545-198.586182 100.282182-84.549818 7.936-165.003636-46.405818-207.941818-46.405818-42.821818 0-109.056 45.218909-179.2 43.985455-92.206545-1.233455-177.245091-49.896727-224.651637-126.836364C19.504291 355.095273 90.765382 125.719273 184.112291 0.139636c45.614545-61.509818 100.026182-130.513455 171.426909-128.069818 68.770909 2.583273 94.789818 41.495273 177.92 41.495273 83.153455 0 106.496-41.472 179.293091-40.215273 74.007273 1.303273 120.901818 62.650182 166.213818 124.322909 52.363636 71.284364 73.937455 140.334545 75.217455 143.895273-1.629091 0.698182-144.337455 51.595636-145.733819 204.683636zM700.3712 718.941091C741.517382 765.858909 769.281745 831.022545 761.718109 896c-59.298909-2.280727-131.165091-37.143273-173.661091-83.991273-38.213818-41.541818-71.586909-107.892364-62.626909-171.566545 66.187636-4.887273 133.701818 31.604364 174.941091 78.452363v0.046546z"  horiz-adv-x="1024" />

    
    <glyph glyph-name="anzhuo-" unicode="&#58902;" d="M501.333 766.5070000000001c128.853 0 237.013-100.693 246.187-229.333 0.213333-2.56 0.426667-4.90667 1.06667-7.46667v-386.56c0-23.68-19.2-42.88-42.88-42.88H297.173c-23.68 0-42.88 19.2-42.88 42.88V529.707c0.426667 2.34667 0.853333 4.90667 1.06667 7.46667 8.96 128.64 117.12 229.333 245.973 229.333m0 64c-164.267 0-298.453-127.573-309.973-288.853h-1.06667v-398.507c0-59.0933 47.7867-106.88 106.88-106.88h408.32c59.0933 0 106.88 47.7867 106.88 106.88V541.653h-1.06667C799.787 703.1469999999999 665.6 830.5067 501.333 830.5067ZM747.52 476.8h-518.4c-11.7333 0-21.3333 9.6-21.3333 21.3333s9.6 21.3333 21.3333 21.3333h518.4c11.7333 0 21.3333-9.6 21.3333-21.3333s-9.38667-21.3333-21.3333-21.3333ZM362.453 756.053c-5.12 0-10.24 1.92-14.2933 5.54667l-83.4133 75.9467a21.2693 21.2693 0 1 0 28.5867 31.5733l83.4133-75.9467c8.74667-7.89333 9.38667-21.3333 1.49333-30.08-4.26667-4.69333-10.0267-7.04-15.7867-7.04ZM624.853 756.053c-5.76 0-11.52 2.34667-15.7867 7.04a21.2693 21.2693 0 0 0 1.49333 30.08l83.4133 75.9467a21.2693 21.2693 0 1 0 28.5867-31.5733L639.147 761.6a20.48 20.48 0 0 0-14.2933-5.54667ZM390.187-117.33000000000004c-17.7067 0-32 14.2933-32 32v134.4c0 17.7067 14.2933 32 32 32s32-14.2933 32-32V-85.33299999999997c0-17.7067-14.2933-32-32-32ZM118.4 80.21299999999996c-17.7067 0-32 14.2933-32 32V470.4c0 17.7067 14.2933 32 32 32s32-14.2933 32-32v-358.187c0-17.7067-14.2933-32-32-32ZM612.48-117.33000000000004c-17.7067 0-32 14.2933-32 32v134.4c0 17.7067 14.2933 32 32 32s32-14.2933 32-32V-85.33299999999997c0-17.7067-14.2933-32-32-32ZM884.267 104.96000000000003c-17.7067 0-32 14.2933-32 32V495.147c0 17.7067 14.2933 32 32 32s32-14.2933 32-32v-358.187c0-17.7067-14.2933-32-32-32ZM377.813 630.187m-24.7467 0a24.7467 24.7467 0 1 1 49.4933 0 24.7467 24.7467 0 1 1-49.4933 0ZM624.853 630.187m-24.7467 0a24.7467 24.7467 0 1 1 49.4933 0 24.7467 24.7467 0 1 1-49.4933 0Z"  horiz-adv-x="1024" />

    
    <glyph glyph-name="wendu" unicode="&#58976;" d="M512-97.3c-163.2 0-296 132.8-296 296 0 97.5 47.4 187 127.5 242.7V696.8c0 92.9 75.6 168.5 168.5 168.5s168.5-75.6 168.5-168.5v-255.5C760.6 385.7 808 296.2 808 198.7c0-163.2-132.8-296-296-296z m0 904.5c-60.9 0-110.4-49.5-110.4-110.4v-271.1c0-10.1-5.2-19.4-13.8-24.7-71.2-44-113.7-119.6-113.7-202.3 0-131.2 106.7-237.9 237.9-237.9s237.9 106.7 237.9 237.9c0 82.7-42.5 158.3-113.7 202.3a28.94 28.94 0 0 0-13.8 24.7V696.8c0 60.9-49.5 110.4-110.4 110.4zM773 640.6H659.1c-16 0-29 13-29 29s13 29 29 29H773c16 0 29-13 29-29s-13-29-29-29zM514.5 297.1c-16 0-29 13-29 29V727.4c0 16 13 29 29 29s29-13 29-29v-401.2c0.1-16-12.9-29.1-29-29.1zM773 555.6H659.1c-16 0-29 13-29 29s13 29 29 29H773c16 0 29-13 29-29s-13-29-29-29zM773 470.6H659.1c-16 0-29 13-29 29s13 29 29 29H773c16 0 29-13 29-29s-13-29-29-29zM512.5 54.2c-78.1 0-141.6 63.5-141.6 141.6s63.5 141.6 141.6 141.6 141.6-63.5 141.6-141.6-63.5-141.6-141.6-141.6z m0 225.1c-46 0-83.5-37.5-83.5-83.5s37.4-83.5 83.5-83.5 83.5 37.4 83.5 83.5-37.5 83.5-83.5 83.5z"  horiz-adv-x="1024" />

    
    <glyph glyph-name="lishi1" unicode="&#59231;" d="M775.72 827.35H125a60 60 0 0 1-60-60v-753.83a60 60 0 0 1 60-60h436.33a282.49 282.49 0 0 0-51.19 54.63c-32.56 45.5-49.63 101.49-49.79 157.3A299.82 299.82 0 0 0 464.1 210c8.29 54.18 34.58 105.37 72.33 144.93s88.18 67.86 141.84 78.65a279 279 0 0 0 157.41-13.98V767.39a60 60 0 0 1-59.96 59.96zM428.11 429.56H194.28c-13.45 0-23.4 11-24 24s11.43 24 24 24h233.83c13.45 0 23.4-11 24-24s-11.45-24-24-24zM544 613.84h-0.63c-14.1-0.35-28.26 0-42.36 0H194.28c-13.45 0-23.4 11-24 24s11.43 24 24 24h0.63c14.1 0.35 28.26 0 42.36 0H544c13.45 0 23.4-11 24-24s-11.42-24-24-24zM734.16 390.34c-124.18 0-224.84-100.67-224.84-224.85S610-59.35 734.16-59.35 959 41.32 959 165.49 858.34 390.34 734.16 390.34zM860 136.92H744.61a23.38 23.38 0 0 0-7.65 1.27c-10.67 2.19-19 12.68-19 23.58V296.85c0 13.44 11 23.4 24 24s24-11.44 24-24v-112h94c13.44 0 23.4-11 24-24s-11.45-23.93-23.96-23.93z"  horiz-adv-x="1024" />

    
    <glyph glyph-name="xwtubiaoku-13" unicode="&#58906;" d="M512.3 384.9m-448 0a448 448 0 1 1 896 0 448 448 0 1 1-896 0ZM430.9 187.60000000000002c-11.9 0-23.4 4.7-31.8 13.2L262.5 337.29999999999995c-17.6 17.6-17.6 46.1 0 63.6 17.6 17.6 46.1 17.6 63.6 0l104.7-104.8L699.7 565c17.6 17.6 46.1 17.6 63.6 0 17.6-17.6 17.6-46.1 0-63.6L462.7 200.70000000000005c-8.4-8.4-19.9-13.1-31.8-13.1z"  horiz-adv-x="1024" />

    
    <glyph glyph-name="xwtubiaoku-15" unicode="&#58908;" d="M512.3 383.70000000000005m-448 0a448 448 0 1 1 896 0 448 448 0 1 1-896 0ZM680.3 169.89999999999998c-11.5 0-23 4.4-31.8 13.1L308.2 522.7c-17.6 17.6-17.6 46-0.1 63.6 17.6 17.6 46 17.6 63.6 0.1L712 246.70000000000005c17.6-17.6 17.6-46 0.1-63.6-8.8-8.8-20.3-13.2-31.8-13.2zM341.7 169.89999999999998c-11.5 0-23.1 4.4-31.9 13.2-17.6 17.6-17.5 46.1 0.1 63.6l340.3 339.7c17.6 17.6 46.1 17.5 63.6-0.1 17.6-17.6 17.5-46.1-0.1-63.6L373.5 183.10000000000002c-8.8-8.8-20.3-13.2-31.8-13.2z"  horiz-adv-x="1024" />

    
    <glyph glyph-name="chenggong2" unicode="&#58970;" d="M874.04 746.04c-200.06 199.67-524.01 199.67-724.08 0-199.67-200.07-199.67-524.01 0-724.08 200.06-199.66 524.01-199.67 724.08 0 199.67 200.06 199.67 524.02 0 724.08zM512-64c-247.3 0.29-447.71 200.7-448 448 0.29 247.3 200.7 447.71 448 448 247.3-0.29 447.71-200.7 448-448-0.28-247.3-200.7-447.71-448-448zM292.68 444.24c-29.48 0-53.38 23.9-53.38 53.38 0 29.48 23.9 53.38 53.38 53.38 29.48 0 53.38-23.9 53.38-53.38 0.01-29.48-23.89-53.38-53.38-53.38z m430.42 0c-29.49 0-53.39 23.9-53.39 53.38 0 29.48 23.9 53.38 53.39 53.38 29.48 0 53.38-23.9 53.38-53.38 0-29.48-23.9-53.38-53.38-53.38zM511.67 94.26c-121.6 0-205.98 59.88-267.08 151.26-9.92 15.66-5.52 36.36 9.92 46.64 15.43 10.27 36.25 6.36 46.89-8.82 49.66-74.23 115.39-120.86 210.27-120.86 94.88 0 160.61 46.63 210.28 120.86a34.105 34.105 0 0 0 30.58 15.12 34.14 34.14 0 0 0 28.4-18.91 34.071 34.071 0 0 0-2.19-34.03c-61.04-91.38-145.47-151.26-267.07-151.26z"  horiz-adv-x="1024" />

    
    <glyph glyph-name="shibai2" unicode="&#58971;" d="M874.04 746.04c-200.06 199.67-524.01 199.67-724.08 0-199.67-200.07-199.67-524.01 0-724.08 200.06-199.66 524.01-199.67 724.08 0 199.67 200.06 199.67 524.02 0 724.08zM512-64c-247.3 0.29-447.71 200.7-448 448 0.29 247.3 200.7 447.71 448 448 247.3-0.29 447.71-200.7 448-448-0.28-247.3-200.7-447.71-448-448zM239.3 497.62c0 29.48 23.9 53.38 53.38 53.38s53.38-23.9 53.38-53.38-23.9-53.38-53.38-53.38-53.38 23.9-53.38 53.38z m430.41 0c0 29.48 23.9 53.38 53.39 53.38 29.48 0 53.38-23.9 53.38-53.38s-23.9-53.38-53.38-53.38c-29.49 0-53.39 23.9-53.39 53.38z m109.47-330.35c9.92-15.66 5.52-36.36-9.92-46.64-15.43-10.27-36.25-6.36-46.89 8.82-49.66 74.23-115.39 120.86-210.27 120.86-94.88 0-160.61-46.63-210.28-120.86a34.105 34.105 0 0 0-30.58-15.12 34.14 34.14 0 0 0-28.4 18.91 34.071 34.071 0 0 0 2.19 34.03c61.05 91.38 145.47 151.26 267.08 151.26 121.59 0.01 205.98-59.87 267.07-151.26z"  horiz-adv-x="1024" />

    
    <glyph glyph-name="shuliang-zengjia" unicode="&#59068;" d="M512 725.333333a341.333333 341.333333 0 1 0 0-682.666666 341.333333 341.333333 0 0 0 0 682.666666z m42.666667-170.666666h-85.333334v-128H341.333333v-85.333334h128v-128h85.333334v128h128v85.333334l-128 0.042666V554.666667z"  horiz-adv-x="1024" />

    
    <glyph glyph-name="shuliangjianshao" unicode="&#59079;" d="M512 725.333333a341.333333 341.333333 0 1 0 0-682.666666 341.333333 341.333333 0 0 0 0 682.666666z m170.666667-298.666666H341.333333v-85.333334h341.333334v85.333334z"  horiz-adv-x="1024" />

    
    <glyph glyph-name="ic_warning" unicode="&#58907;" d="M512-128C229.248-128 0 101.24800000000005 0 384S229.248 896 512 896s512-229.248 512-512-229.248-512-512-512z m0 77.44c240 0 434.56 194.56 434.56 434.56 0 240-194.56 434.56-434.56 434.56C272 818.56 77.44 624 77.44 384c0-240 194.56-434.56 434.56-434.56zM511.658667 685.226667h0.682666a42.666667 42.666667 0 0 0 42.666667-42.666667v-344.917333a42.666667 42.666667 0 0 0-42.666667-42.666667h-0.682666a42.666667 42.666667 0 0 0-42.666667 42.666667V642.517333a42.666667 42.666667 0 0 0 42.666667 42.666667zM512 82.77333299999998a43.008 43.008 0 1 0 0 86.058667 43.008 43.008 0 0 0 0-86.058667z"  horiz-adv-x="1024" />

    
    <glyph glyph-name="shibai3" unicode="&#58955;" d="M512 832a448 448 0 1 1 0-896A448 448 0 0 1 512 832zM536.384 380.992l131.264 156.48a3.968 3.968 0 0 1-3.072 6.528h-39.872a8.128 8.128 0 0 1-6.144-2.88L510.336 412.16 402.048 541.12a8 8 0 0 1-6.144 2.88h-39.872a3.968 3.968 0 0 1-3.072-6.528l131.2-156.48-131.2-156.416a3.968 3.968 0 0 1 3.072-6.592h39.872a8.128 8.128 0 0 1 6.144 2.88l108.288 129.024 108.16-129.024a8 8 0 0 1 6.208-2.88h39.872a3.968 3.968 0 0 1 3.072 6.592l-131.2 156.416z"  horiz-adv-x="1024" />

    
    <glyph glyph-name="gaishuai" unicode="&#60887;" d="M855.3984 362.1888H532.48c-23.1424 0-41.9328 18.7904-41.9328 41.9328V727.04c0 24.832-21.504 44.4928-46.1312 41.728-207.4112-23.296-367.9232-201.6768-362.9056-416.4608 5.12-217.0368 182.1184-394.0864 399.1552-399.1552 214.784-5.0688 393.1648 155.4432 416.4608 362.9056 2.7648 24.6272-16.896 46.1312-41.728 46.1312zM943.6672 454.656c-21.248 189.0816-171.3152 339.2-360.3968 360.3968-24.6784 2.7648-46.1824-16.896-46.1824-41.728v-322.9184c0-23.1424 18.7904-41.9328 41.9328-41.9328h322.9184c24.832 0.0512 44.4928 21.504 41.728 46.1824z"  horiz-adv-x="1024" />

    


  </font>
</defs>
</svg>
